<?xml version="1.0" standalone="no"?>
<!DOCTYPE svg PUBLIC "-//W3C//DTD SVG 20010904//EN"
 "http://www.w3.org/TR/2001/REC-SVG-20010904/DTD/svg10.dtd">
<svg version="1.0" xmlns="http://www.w3.org/2000/svg"
 width="600.000000pt" height="228.000000pt" viewBox="0 0 600.000000 228.000000"
 preserveAspectRatio="xMidYMid meet">
<metadata>
Created by potrace 1.16, written by Peter Selinger 2001-2019
</metadata>
<g transform="translate(0.000000,228.000000) scale(0.100000,-0.100000)"
fill="#000000" stroke="none">
<path d="M70 1456 c0 -3 12 -22 26 -43 25 -38 26 -40 22 -198 -3 -144 -5 -164
-25 -197 l-22 -38 304 0 c279 0 307 2 349 20 77 32 86 58 86 236 0 141 -2 153
-23 185 l-23 34 -347 3 c-191 1 -347 0 -347 -2z m570 -232 c0 -141 9 -134
-180 -134 l-160 0 0 96 c0 141 -9 134 180 134 l160 0 0 -96z"/>
<path d="M838 1419 l32 -31 0 -163 c0 -187 5 -201 87 -229 65 -22 436 -23 510
-1 97 29 96 27 100 224 l4 172 -30 29 c-29 30 -31 30 -137 30 l-107 0 20 -22
c38 -42 43 -65 43 -185 0 -165 1 -163 -144 -163 -74 0 -116 4 -124 12 -8 8
-12 58 -12 160 l0 147 -27 26 c-26 24 -34 25 -137 25 l-110 0 32 -31z"/>
<path d="M1570 1445 c0 -2 11 -15 25 -29 l25 -25 0 -206 0 -205 105 0 105 0 0
75 0 75 165 0 165 0 0 -75 0 -75 105 0 105 0 0 185 0 184 -30 35 c-58 66 -61
66 -434 66 -185 0 -336 -2 -336 -5z m590 -160 l0 -55 -165 0 -165 0 0 39 c0
73 -6 71 171 71 l159 0 0 -55z"/>
<path d="M2389 1421 l31 -29 0 -206 0 -206 330 0 330 0 -16 25 c-8 13 -39 36
-67 50 -48 23 -61 25 -197 25 -100 0 -150 4 -158 12 -8 8 -12 58 -12 160 0
145 -1 150 -25 173 -23 24 -31 25 -136 25 l-111 0 31 -29z"/>
<path d="M2831 1431 c56 -43 128 -69 247 -86 l42 -7 0 -179 0 -179 105 0 105
0 0 180 0 180 28 6 c67 15 93 27 122 60 16 19 30 37 30 39 0 3 -158 5 -351 5
-345 0 -351 0 -328 -19z"/>
<path d="M3566 1419 l29 -30 0 -205 0 -205 105 3 105 3 3 89 3 88 31 -6 c59
-12 292 -117 491 -222 109 -57 201 -104 205 -104 22 0 -191 176 -370 306 l-29
22 58 7 c74 9 131 38 144 73 15 37 5 109 -18 141 -11 14 -35 36 -53 49 -33 22
-36 22 -383 22 l-351 0 30 -31z m564 -88 c5 -11 10 -29 10 -40 0 -20 -5 -21
-165 -21 l-165 0 0 30 c0 17 7 33 18 39 9 6 79 11 154 11 126 0 138 -2 148
-19z"/>
<path d="M4401 1424 c-19 -25 -21 -40 -21 -193 l0 -167 28 -27 c55 -53 80 -57
347 -57 269 0 319 7 365 50 l30 28 -3 165 -2 166 -29 30 -30 31 -332 0 -333 0
-20 -26z m529 -197 c0 -75 -4 -117 -12 -125 -8 -8 -59 -12 -165 -12 l-153 0 0
113 c0 75 4 117 12 125 8 8 59 12 165 12 l153 0 0 -113z"/>
<path d="M5156 1419 l29 -30 0 -205 0 -204 107 0 108 0 2 178 3 177 149 3
c101 2 153 -1 162 -9 11 -9 14 -49 14 -180 l0 -169 100 0 100 0 0 183 c0 208
-7 230 -79 267 -38 19 -58 20 -382 20 l-343 0 30 -31z"/>
</g>
</svg>
