<?xml version="1.0" standalone="no"?>
<!DOCTYPE svg PUBLIC "-//W3C//DTD SVG 20010904//EN"
 "http://www.w3.org/TR/2001/REC-SVG-20010904/DTD/svg10.dtd">
<svg version="1.0" xmlns="http://www.w3.org/2000/svg"
 width="65.000000pt" height="57.000000pt" viewBox="0 0 65.000000 57.000000"
 preserveAspectRatio="xMidYMid meet">
<metadata>
Created by potrace 1.16, written by Peter Selinger 2001-2019
</metadata>
<g transform="translate(0.000000,57.000000) scale(0.100000,-0.100000)"
fill="#000000" stroke="none">
<path d="M367 544 c-3 -3 -29 -8 -58 -10 -219 -17 -307 -259 -153 -418 30 -31
33 -39 24 -57 -15 -27 -4 -38 16 -17 13 13 34 15 118 11 90 -5 107 -3 154 17
51 22 92 60 92 85 0 7 -18 24 -39 38 l-40 27 -43 -25 c-49 -28 -78 -32 -78
-10 0 9 -9 15 -22 15 -20 0 -21 1 -3 20 16 18 31 20 120 20 122 0 131 6 122
79 -7 59 -34 116 -75 154 -21 20 -28 35 -24 52 4 24 2 25 -50 25 -30 0 -57 -3
-61 -6z m87 -16 c-4 -7 -28 -44 -54 -83 -26 -38 -50 -75 -53 -82 -6 -9 3 -10
30 -6 29 4 35 3 27 -6 -7 -8 -36 -11 -77 -9 l-66 3 60 98 c60 96 61 97 101 97
29 0 37 -3 32 -12z m-106 -15 c-25 -51 -35 -63 -69 -76 -36 -14 -79 -65 -79
-94 0 -10 33 -13 130 -13 123 0 130 1 130 20 0 11 -13 34 -29 52 l-29 32 22
33 c11 18 24 33 27 33 3 0 23 -16 44 -37 42 -41 60 -77 69 -145 l7 -48 -187 0
-186 0 7 -22 c4 -13 8 -35 8 -50 0 -18 6 -28 18 -30 18 -3 17 -5 -5 -33 -23
-29 -24 -29 -50 -12 -45 30 -77 90 -83 155 -12 131 86 240 215 242 24 0 42 -3
40 -7z m-42 -288 l-27 -35 28 0 c27 0 26 -1 -22 -46 -33 -30 -39 -38 -18 -24
18 11 35 25 38 30 4 6 26 10 51 10 25 0 62 9 84 20 48 24 49 24 79 -1 23 -18
23 -20 7 -38 -10 -11 -40 -29 -68 -41 -44 -19 -63 -21 -132 -16 -45 3 -89 6
-99 6 -14 1 -13 8 13 46 27 39 29 44 12 44 -14 0 -19 7 -19 30 0 17 4 30 9 30
5 0 6 -6 3 -12 -3 -7 2 -3 12 9 11 13 30 22 47 23 l28 0 -26 -35z"/>
</g>
</svg>
