<?xml version="1.0" standalone="no"?>
<!DOCTYPE svg PUBLIC "-//W3C//DTD SVG 20010904//EN"
 "http://www.w3.org/TR/2001/REC-SVG-20010904/DTD/svg10.dtd">
<svg version="1.0" xmlns="http://www.w3.org/2000/svg"
 width="321.000000pt" height="58.000000pt" viewBox="0 0 321.000000 58.000000"
 preserveAspectRatio="xMidYMid meet">
<metadata>
Created by potrace 1.16, written by Peter Selinger 2001-2019
</metadata>
<g transform="translate(0.000000,58.000000) scale(0.100000,-0.100000)"
fill="#000000" stroke="none">
<path d="M357 544 c-3 -3 -29 -8 -58 -10 -219 -17 -307 -259 -153 -418 30 -31
33 -39 24 -57 -15 -27 -4 -38 16 -17 13 13 34 15 118 11 90 -5 107 -3 154 17
51 22 92 60 92 85 0 7 -18 24 -39 38 l-40 27 -43 -25 c-49 -28 -78 -32 -78
-10 0 9 -9 15 -22 15 -20 0 -21 1 -3 20 16 18 31 20 120 20 122 0 131 6 122
79 -7 59 -34 116 -75 154 -21 20 -28 35 -24 52 4 24 2 25 -50 25 -30 0 -57 -3
-61 -6z m87 -16 c-4 -7 -28 -44 -54 -83 -26 -38 -50 -75 -53 -82 -6 -9 3 -10
30 -6 29 4 35 3 27 -6 -7 -8 -36 -11 -77 -9 l-66 3 60 98 c60 96 61 97 101 97
29 0 37 -3 32 -12z m-106 -15 c-25 -51 -35 -63 -69 -76 -36 -14 -79 -65 -79
-94 0 -10 33 -13 130 -13 123 0 130 1 130 20 0 11 -13 34 -29 52 l-29 32 22
33 c11 18 24 33 27 33 3 0 23 -16 44 -37 42 -41 60 -77 69 -145 l7 -48 -187 0
-186 0 7 -22 c4 -13 8 -35 8 -50 0 -18 6 -28 18 -30 18 -3 17 -5 -5 -33 -23
-29 -24 -29 -50 -12 -45 30 -77 90 -83 155 -12 131 86 240 215 242 24 0 42 -3
40 -7z m-42 -288 l-27 -35 28 0 c27 0 26 -1 -22 -46 -33 -30 -39 -38 -18 -24
18 11 35 25 38 30 4 6 26 10 51 10 25 0 62 9 84 20 48 24 49 24 79 -1 23 -18
23 -20 7 -38 -10 -11 -40 -29 -68 -41 -44 -19 -63 -21 -132 -16 -45 3 -89 6
-99 6 -14 1 -13 8 13 46 27 39 29 44 12 44 -14 0 -19 7 -19 30 0 17 4 30 9 30
5 0 6 -6 3 -12 -3 -7 2 -3 12 9 11 13 30 22 47 23 l28 0 -26 -35z"/>
<path d="M806 430 c-66 -21 -100 -79 -94 -158 4 -48 10 -60 40 -88 42 -38 98
-50 157 -34 66 17 83 40 79 108 l-3 57 -72 3 -73 3 0 -36 c0 -32 2 -35 31 -35
17 0 28 -4 24 -10 -10 -17 -61 -11 -78 8 -50 55 17 127 85 91 16 -9 24 -7 44
12 13 12 24 28 24 36 0 34 -105 62 -164 43z m119 -22 c28 -13 32 -30 11 -47
-11 -9 -20 -9 -35 -2 -45 24 -96 1 -114 -52 -11 -29 18 -85 46 -92 46 -12 72
-2 75 28 3 23 0 27 -22 27 -19 0 -26 5 -26 20 0 18 7 20 55 20 l55 0 0 -58 c0
-59 0 -59 -40 -77 -48 -22 -120 -16 -159 12 -14 11 -33 39 -41 61 -30 86 33
172 126 172 24 0 55 -5 69 -12z"/>
<path d="M2550 429 c-38 -16 -78 -58 -91 -96 -43 -132 117 -240 244 -165 25
15 27 21 27 84 l0 68 -70 0 -70 0 0 -35 c0 -31 3 -35 25 -35 14 0 25 -4 25
-10 0 -16 -57 -12 -74 6 -9 8 -16 28 -16 44 0 52 51 76 103 49 18 -10 24 -8
44 15 13 15 23 31 23 36 0 32 -121 60 -170 39z m119 -20 c34 -12 36 -16 17
-41 -11 -15 -18 -16 -43 -6 -63 24 -122 -27 -108 -93 15 -66 125 -85 125 -22
0 22 -4 25 -25 21 -21 -4 -25 -1 -25 19 0 23 3 24 53 21 l52 -3 3 -52 c3 -47
0 -54 -23 -69 -38 -25 -115 -30 -154 -10 -40 21 -71 71 -71 114 0 98 97 157
199 121z"/>
<path d="M1235 398 c-7 -18 -34 -81 -59 -140 l-45 -108 49 0 c38 0 52 4 59 19
8 13 24 20 56 23 41 3 46 1 51 -19 5 -20 13 -23 55 -23 27 0 49 4 49 9 0 5
-25 68 -56 140 l-56 131 -45 0 c-40 0 -45 -3 -58 -32z m138 -93 c26 -63 50
-122 53 -130 5 -11 -1 -15 -25 -15 -24 0 -34 6 -43 25 -10 22 -17 25 -65 25
-47 0 -55 -3 -65 -25 -8 -18 -19 -25 -40 -25 -15 0 -28 3 -28 7 0 4 23 62 52
130 50 120 52 123 82 123 30 0 32 -4 79 -115z"/>
<path d="M1610 290 l0 -140 45 0 45 0 0 40 c0 22 4 40 9 40 4 0 20 -18 35 -40
25 -39 28 -40 82 -40 l55 0 -31 45 -31 45 20 27 c14 17 21 40 21 68 0 36 -5
48 -31 69 -28 24 -38 26 -125 26 l-94 0 0 -140z m185 116 c40 -17 60 -53 51
-90 -6 -26 -27 -51 -48 -58 -8 -3 -1 -18 20 -45 17 -23 32 -44 32 -47 0 -3
-15 -6 -34 -6 -28 0 -38 6 -60 40 -35 53 -64 54 -68 3 -3 -34 -6 -38 -31 -38
l-28 0 0 123 c0 67 0 124 1 127 0 11 133 4 165 -9z"/>
<path d="M2107 398 c-54 -126 -100 -234 -104 -241 -2 -4 19 -7 47 -7 43 0 53
3 57 20 4 17 14 20 55 20 41 0 51 -3 55 -20 4 -17 14 -20 54 -20 27 0 49 3 49
8 0 4 -25 67 -56 140 l-56 132 -44 0 c-40 0 -45 -3 -57 -32z m136 -90 c25 -62
49 -121 53 -130 5 -15 0 -18 -25 -18 -24 0 -34 6 -41 25 -9 23 -15 25 -65 25
-49 0 -57 -3 -67 -25 -8 -18 -19 -25 -40 -25 -15 0 -28 3 -28 6 0 3 23 61 51
130 50 122 52 124 83 124 31 0 33 -2 79 -112z"/>
<path d="M2900 290 l0 -140 120 0 120 0 0 40 0 40 -70 0 c-40 0 -70 4 -70 10
0 6 27 10 60 10 l60 0 0 40 0 40 -60 0 c-33 0 -60 4 -60 10 0 6 30 10 70 10
l70 0 0 40 0 40 -120 0 -120 0 0 -140z m220 105 c0 -24 -2 -25 -70 -25 l-70 0
0 -30 0 -30 65 0 c58 0 65 -2 65 -20 0 -18 -7 -20 -66 -20 l-65 0 3 -27 c3
-27 5 -28 71 -31 64 -3 67 -4 67 -27 0 -25 0 -25 -100 -25 l-100 0 0 130 0
130 100 0 100 0 0 -25z"/>
</g>
</svg>
