<?xml version="1.0" standalone="no"?>
<!DOCTYPE svg PUBLIC "-//W3C//DTD SVG 20010904//EN"
 "http://www.w3.org/TR/2001/REC-SVG-20010904/DTD/svg10.dtd">
<svg version="1.0" xmlns="http://www.w3.org/2000/svg"
 width="900.000000pt" height="900.000000pt" viewBox="0 0 900.000000 900.000000"
 preserveAspectRatio="xMidYMid meet">
<metadata>
Created by potrace 1.16, written by Peter Selinger 2001-2019
</metadata>
<g transform="translate(0.000000,900.000000) scale(0.100000,-0.100000)"
fill="#000000" stroke="none">
<path d="M4245 7464 c-405 -43 -747 -139 -1075 -304 -738 -370 -1287 -1020
-1525 -1804 -45 -149 -67 -250 -97 -436 -20 -127 -23 -180 -22 -430 0 -261 2
-299 27 -450 92 -559 324 -1065 677 -1475 478 -555 1110 -904 1838 -1017 128
-20 184 -23 437 -22 250 0 310 3 434 22 180 29 407 86 576 147 275 98 614 287
845 471 110 87 387 364 474 474 265 332 475 764 571 1174 60 256 88 582 73
851 -42 733 -351 1420 -875 1941 -457 455 -1041 745 -1693 840 -101 15 -573
27 -665 18z m280 -426 c-55 -57 -350 -355 -655 -663 -305 -308 -681 -688 -835
-843 l-280 -284 274 -269 274 -269 -455 -462 c-251 -255 -529 -539 -619 -632
l-164 -169 -21 49 c-37 85 -103 295 -128 409 -43 191 -57 314 -63 525 -12 460
80 864 289 1272 262 513 674 916 1197 1173 352 173 724 261 1116 264 l170 1
-100 -102z m950 -80 c496 -198 929 -545 1224 -982 l49 -73 -231 -231 -232
-232 -198 0 -197 0 0 -680 0 -680 245 0 245 0 0 378 0 377 300 300 299 299 16
-38 c53 -127 117 -403 141 -613 20 -170 14 -514 -10 -673 -19 -115 -75 -354
-104 -440 l-19 -55 -557 -3 -556 -2 2 -684 3 -685 -60 -34 c-290 -168 -601
-277 -952 -333 -57 -9 -192 -18 -323 -21 -191 -4 -249 -2 -385 16 -192 25
-343 58 -496 109 l-114 38 -3 494 -2 495 310 310 310 310 -2 342 -3 343 -351
-350 -350 -350 -203 0 -202 0 3 -670 c2 -369 1 -670 -3 -670 -22 0 -247 171
-367 279 -125 113 -392 426 -392 459 0 9 1730 1775 1775 1812 17 14 -1 33
-258 285 l-276 270 830 837 830 836 82 -25 c45 -14 127 -43 182 -65z m1115
-3896 l0 -198 -54 -65 c-30 -35 -77 -89 -105 -119 l-50 -55 -1 318 0 317 105
0 105 0 0 -198z"/>
<path d="M4402 4763 l3 -678 598 -3 597 -2 0 680 0 680 -245 0 -245 0 0 -505
0 -505 -105 0 -105 0 0 505 0 505 -250 0 -250 0 2 -677z"/>
<path d="M4402 2933 l3 -678 598 -3 597 -2 0 680 0 680 -600 0 -600 0 2 -677z
m708 -3 l0 -330 -105 0 -105 0 0 330 0 330 105 0 105 0 0 -330z"/>
</g>
</svg>
