<?xml version="1.0" standalone="no"?>
<!DOCTYPE svg PUBLIC "-//W3C//DTD SVG 20010904//EN"
 "http://www.w3.org/TR/2001/REC-SVG-20010904/DTD/svg10.dtd">
<svg version="1.0" xmlns="http://www.w3.org/2000/svg"
 width="689.000000pt" height="134.000000pt" viewBox="0 0 689.000000 134.000000"
 preserveAspectRatio="xMidYMid meet">
<metadata>
Created by potrace 1.16, written by Peter Selinger 2001-2019
</metadata>
<g transform="translate(0.000000,134.000000) scale(0.100000,-0.100000)"
fill="#000000" stroke="none">
<path d="M923 1279 c-98 -12 -181 -38 -273 -85 -119 -61 -190 -127 -236 -219
-88 -178 -45 -254 191 -341 106 -39 177 -81 196 -116 18 -33 5 -105 -28 -150
-16 -22 -53 -55 -83 -74 -89 -54 -149 -66 -381 -71 l-206 -5 -51 -104 c-29
-57 -52 -107 -52 -110 0 -4 107 -4 238 -1 248 5 306 13 462 63 110 35 194 88
291 184 107 107 161 205 167 306 5 79 -7 112 -64 164 -44 40 -95 66 -237 122
-43 16 -90 40 -104 52 -52 45 -24 109 65 153 l57 28 2771 3 2770 2 57 98 c31
55 57 102 57 105 0 10 -5533 6 -5607 -4z m4893 -25 c12 -3 26 -16 32 -28 25
-55 -25 -123 -82 -112 -36 7 -46 21 -46 61 1 33 14 55 45 73 23 13 24 13 51 6z
m172 -23 c30 -37 -19 -121 -72 -121 -36 0 -60 33 -52 73 13 68 86 97 124 48z"/>
<path d="M1592 938 c-5 -7 -51 -94 -102 -193 -51 -99 -130 -253 -176 -343 -46
-89 -84 -164 -84 -167 0 -3 33 -5 74 -5 l75 0 78 149 77 148 101 6 c114 6 200
32 273 81 86 58 154 176 138 241 -10 39 -71 73 -151 84 -102 15 -290 14 -303
-1z m260 -129 c41 -22 7 -98 -57 -129 -42 -20 -153 -37 -179 -27 -12 5 -7 21
26 84 22 43 42 82 45 87 7 10 140 -2 165 -15z"/>
<path d="M2535 944 c-11 -2 -45 -9 -75 -15 -78 -16 -165 -65 -213 -120 -23
-27 -84 -130 -136 -231 -110 -215 -117 -251 -64 -298 46 -41 90 -50 248 -50
l141 0 27 55 c15 31 27 58 27 60 0 3 -53 5 -117 5 -175 0 -199 21 -149 134
l25 56 168 0 169 0 27 55 c15 31 27 58 27 60 0 3 -72 5 -160 5 -88 0 -160 2
-160 5 0 15 35 73 59 98 48 52 75 60 222 65 l136 4 27 54 c14 30 26 57 26 59
0 6 -226 5 -255 -1z"/>
<path d="M3178 940 c-125 -21 -212 -69 -275 -151 -22 -30 -80 -132 -127 -227
-96 -194 -106 -240 -63 -279 47 -43 67 -47 234 -51 l162 -4 25 51 c14 28 26
55 26 61 0 6 -42 10 -114 10 -63 0 -126 4 -140 10 -40 15 -43 52 -11 121 l29
59 168 0 168 0 30 60 30 60 -165 0 -165 0 11 27 c17 46 58 92 102 115 36 19
62 23 175 26 l133 4 24 49 c14 26 25 53 25 59 0 12 -210 12 -282 0z"/>
<path d="M3633 938 c-31 -41 -362 -708 -351 -709 64 -4 333 4 368 11 105 20
162 50 235 124 61 61 82 92 148 223 86 168 101 227 74 280 -31 60 -124 83
-333 83 -94 0 -134 -4 -141 -12z m256 -129 c38 -14 54 -39 45 -76 -13 -51
-127 -266 -163 -306 -45 -50 -88 -67 -183 -74 -60 -5 -78 -3 -78 7 0 7 51 113
113 236 l112 224 61 0 c34 0 75 -5 93 -11z"/>
<path d="M4349 888 c-18 -35 -80 -158 -140 -274 -64 -126 -110 -229 -114 -255
-15 -98 34 -134 170 -127 64 4 91 11 135 34 30 16 58 30 61 32 3 1 11 -8 17
-22 16 -35 70 -50 167 -44 122 8 204 59 278 171 39 59 277 521 277 537 0 6
-30 10 -75 10 l-75 0 -25 -47 c-13 -27 -78 -151 -143 -278 -129 -251 -149
-275 -223 -275 -53 0 -62 21 -39 89 11 29 30 71 43 94 35 60 207 401 207 410
0 4 -36 7 -80 7 l-79 0 -111 -220 c-155 -309 -167 -328 -218 -362 -33 -22 -95
-23 -112 -3 -19 22 -10 43 186 422 41 78 74 147 74 153 0 6 -30 10 -75 10
l-75 0 -31 -62z"/>
<path d="M5640 934 c-126 -34 -222 -112 -286 -234 -31 -60 -44 -75 -84 -95
-83 -42 -140 -116 -234 -302 -20 -40 -36 -75 -36 -78 0 -3 36 -5 81 -3 l80 3
61 115 c69 132 86 152 143 180 33 16 62 20 143 20 74 0 102 -3 102 -12 0 -7
-31 -74 -70 -149 -38 -76 -70 -142 -70 -148 0 -7 28 -11 78 -11 l77 0 71 138
c200 386 216 420 217 471 2 39 -3 54 -21 74 -43 46 -149 59 -252 31z m85 -120
c18 -18 15 -34 -17 -106 l-21 -48 -94 0 c-51 0 -93 2 -93 5 0 3 11 27 24 53
24 47 68 95 96 105 32 11 89 7 105 -9z"/>
<path d="M6154 933 c-9 -10 -42 -68 -72 -130 -80 -163 -75 -210 26 -255 l42
-19 -75 -146 c-41 -80 -75 -148 -75 -150 0 -2 34 -3 77 -1 l76 3 78 150 c52
101 83 151 96 153 100 17 199 76 254 151 27 35 139 243 139 256 0 3 -35 5 -77
3 l-78 -3 -55 -107 c-30 -58 -64 -116 -75 -128 -50 -57 -175 -80 -215 -40 -11
11 -20 26 -20 33 0 8 25 63 55 123 30 60 55 112 55 117 0 4 -31 7 -69 7 -52 0
-74 -4 -87 -17z"/>
</g>
</svg>
