<?xml version="1.0" standalone="no"?>
<!DOCTYPE svg PUBLIC "-//W3C//DTD SVG 20010904//EN"
 "http://www.w3.org/TR/2001/REC-SVG-20010904/DTD/svg10.dtd">
<svg version="1.0" xmlns="http://www.w3.org/2000/svg"
 width="1200.000000pt" height="628.000000pt" viewBox="0 0 1200.000000 628.000000"
 preserveAspectRatio="xMidYMid meet">
<metadata>
Created by potrace 1.16, written by Peter Selinger 2001-2019
</metadata>
<g transform="translate(0.000000,628.000000) scale(0.100000,-0.100000)"
fill="#000000" stroke="none">
<path d="M0 3135 l0 -1655 5059 0 5060 0 55 72 c72 95 111 145 334 433 102
132 220 284 261 339 42 54 108 139 147 190 68 86 392 505 472 610 20 26 42 53
48 60 18 20 94 125 94 131 0 3 -141 5 -314 5 -173 0 -317 3 -320 8 -2 4 39 64
92 134 113 147 510 661 532 688 8 10 47 59 85 110 39 50 143 186 233 301 89
115 162 213 162 219 0 7 -1974 10 -6000 10 l-6000 0 0 -1655z m8940 1415 c318
-42 595 -177 819 -398 124 -122 206 -233 273 -370 119 -242 153 -386 153 -652
-1 -256 -35 -404 -148 -629 -62 -125 -77 -148 -167 -261 -315 -391 -813 -587
-1307 -514 -105 15 -135 22 -273 66 -257 81 -545 305 -718 560 -50 73 -128
235 -160 333 -59 177 -67 233 -67 450 0 229 15 316 86 504 183 487 635 845
1149 911 80 10 285 10 360 0z m-6167 -86 c3 -3 -27 -49 -67 -102 -79 -104
-404 -542 -606 -815 -69 -93 -248 -334 -398 -535 -151 -202 -346 -466 -435
-587 -89 -121 -167 -227 -174 -235 -7 -8 -33 -42 -57 -75 l-45 -60 835 -3 835
-2 -3 -123 -3 -122 -1062 -3 c-786 -1 -1063 1 -1063 9 0 10 65 103 117 169 6
8 62 83 123 165 60 83 119 161 130 175 18 24 174 234 204 275 17 23 130 176
427 575 113 151 246 331 297 400 51 69 98 132 105 140 7 8 68 91 137 185 69
93 150 203 182 245 47 63 53 76 40 82 -10 4 -341 7 -737 7 -396 0 -730 0 -742
0 -22 1 -23 4 -23 114 0 63 3 117 7 120 8 9 1967 9 1976 1z m2037 -114 l0
-120 -700 -1 c-385 -1 -706 -2 -712 -3 -10 -1 -14 -106 -16 -483 l-2 -483 640
0 640 0 0 -125 0 -125 -640 0 -640 0 0 -480 0 -480 715 0 716 0 -3 -122 -3
-123 -832 -3 c-773 -2 -832 -1 -835 15 -2 9 -2 610 0 1335 l2 1318 835 0 835
0 0 -120z m1596 101 c208 -45 389 -182 493 -374 93 -172 107 -413 34 -597 -88
-221 -274 -386 -505 -445 -35 -9 -64 -18 -66 -20 -3 -3 171 -304 253 -439 11
-18 71 -120 134 -227 62 -107 131 -221 151 -254 78 -122 168 -284 163 -289 -4
-3 -66 -6 -139 -6 l-133 0 -87 148 c-48 81 -104 174 -124 207 -21 33 -54 89
-75 125 -59 101 -68 116 -152 260 -44 74 -102 171 -129 216 -27 44 -71 120
-99 167 l-50 87 -242 0 -243 0 -2 -602 -3 -603 -120 0 -120 0 -3 1320 c-1 726
0 1326 3 1333 3 9 110 12 488 12 438 0 492 -2 573 -19z"/>
<path d="M8560 4300 c-426 -78 -768 -371 -913 -780 -45 -128 -60 -222 -60
-385 0 -168 14 -258 65 -400 140 -392 492 -688 904 -760 158 -27 237 -29 377
-6 117 19 247 53 272 71 6 4 26 13 45 20 126 50 298 179 406 305 191 223 285
476 285 768 1 334 -115 611 -353 845 -111 109 -216 180 -367 246 -147 65 -223
79 -431 82 -102 1 -205 -2 -230 -6z"/>
<path d="M5598 4224 c-5 -4 -8 -223 -8 -486 l0 -478 361 0 c296 0 372 3 422
16 113 29 197 85 267 178 104 138 124 337 48 495 -36 77 -138 184 -208 219
-103 51 -131 55 -515 59 -198 3 -363 1 -367 -3z"/>
</g>
</svg>
